<svg width="213" height="28" viewBox="0 0 213 28" fill="none" xmlns="http://www.w3.org/2000/svg">
<path d="M34.0279 21.7718C32.3724 21.7718 31.0153 21.3386 29.9566 20.4724C28.8978 19.5869 28.3684 18.403 28.3684 16.9207C28.3684 15.3807 28.8689 14.1776 29.8699 13.3114C30.8709 12.4451 32.2762 12.012 34.0857 12.012C35.8374 12.012 37.3486 12.3681 38.6191 13.0804V12.705C38.6191 11.7233 38.3111 11.011 37.6951 10.5682C37.0983 10.1255 36.1262 9.90413 34.7787 9.90413C33.9317 9.90413 33.0943 9.99075 32.2666 10.164C31.4388 10.318 30.7073 10.5394 30.0721 10.8281V7.9695C30.6496 7.7 31.4196 7.47862 32.3821 7.30537C33.3638 7.13212 34.3071 7.0455 35.2118 7.0455C37.6181 7.0455 39.3987 7.56525 40.5537 8.60475C41.7087 9.625 42.2862 11.0495 42.2862 12.8783V21.3386H38.8501V19.9815C38.2533 20.559 37.57 21.0018 36.7999 21.3098C36.0492 21.6178 35.1252 21.7718 34.0279 21.7718ZM34.9231 19.1152C35.7316 19.1152 36.4631 18.9613 37.1176 18.6532C37.7721 18.326 38.2726 17.8833 38.6191 17.325V15.7946C37.5603 15.0439 36.3476 14.6685 34.9808 14.6685C33.0366 14.6685 32.0644 15.4192 32.0644 16.9207C32.0644 17.6523 32.3051 18.2009 32.7863 18.5666C33.2868 18.9324 33.9991 19.1152 34.9231 19.1152Z" fill="#1A1A1A"/>
<path d="M44.4561 7.47863H47.8634V9.29775C48.4794 8.56625 49.2012 8.008 50.029 7.623C50.8567 7.238 51.6941 7.0455 52.5411 7.0455C53.6191 7.0455 54.4854 7.22837 55.1399 7.59413C55.7944 7.94062 56.2852 8.47 56.6125 9.18225C57.2285 8.48925 57.9696 7.95988 58.8359 7.59413C59.7214 7.22837 60.5972 7.0455 61.4635 7.0455C63.196 7.0455 64.4376 7.47862 65.1884 8.34488C65.9391 9.21113 66.3145 10.4816 66.3145 12.1564V21.3386H62.8206V12.6473C62.8206 11.6655 62.6185 10.9629 62.2142 10.5394C61.8292 10.1159 61.2036 9.90413 60.3374 9.90413C59.7214 9.90413 59.1535 10.0293 58.6337 10.2795C58.1332 10.5105 57.6712 10.9148 57.2477 11.4923C57.2862 12.1083 57.3055 12.6088 57.3055 12.9938V21.3386H53.7827V12.5895C53.7827 11.5885 53.6191 10.8955 53.2919 10.5105C52.9646 10.1062 52.3679 9.90413 51.5016 9.90413C50.1926 9.90413 49.0184 10.6453 47.9789 12.1275V21.3386H44.4561V7.47863Z" fill="#1A1A1A"/>
<path d="M76.2784 21.7718C73.6989 21.7718 71.6584 21.1269 70.1569 19.8371C68.6554 18.5474 67.9046 16.7475 67.9046 14.4375C67.9046 12.166 68.5688 10.3661 69.897 9.03788C71.2253 7.70963 73.1214 7.0455 75.5854 7.0455C77.2024 7.0455 78.5788 7.3535 79.7145 7.9695C80.8695 8.5855 81.7358 9.4325 82.3133 10.5105C82.8908 11.5693 83.1795 12.782 83.1795 14.1488V15.8235H71.3696C71.6199 17.8833 73.4101 18.9131 76.7404 18.9131C77.6259 18.9131 78.5306 18.8361 79.4546 18.6821C80.3786 18.5281 81.1871 18.3164 81.8801 18.0469V20.8477C81.2256 21.1173 80.3786 21.3386 79.3391 21.5119C78.3189 21.6851 77.2986 21.7718 76.2784 21.7718ZM79.7434 13.3403C79.7049 12.243 79.3103 11.396 78.5595 10.7993C77.828 10.2025 76.8174 9.90413 75.5276 9.90413C74.2571 9.90413 73.2561 10.2121 72.5246 10.8281C71.7931 11.4441 71.4081 12.2815 71.3696 13.3403H79.7434Z" fill="#1A1A1A"/>
<path d="M92.4592 21.7718C90.8422 21.7718 89.4177 21.483 88.1857 20.9055C86.973 20.328 86.0297 19.4906 85.356 18.3934C84.6822 17.2961 84.3453 15.9775 84.3453 14.4375C84.3453 12.8975 84.6822 11.5789 85.356 10.4816C86.049 9.36513 87.0018 8.51813 88.2146 7.94063C89.4466 7.34387 90.8807 7.0455 92.517 7.0455C94.673 7.0455 96.3958 7.469 97.6856 8.316V11.2324C96.4343 10.3469 94.8366 9.90413 92.8923 9.90413C91.4101 9.90413 90.2262 10.2795 89.3407 11.0302C88.4745 11.7618 88.0413 12.8975 88.0413 14.4375C88.0413 15.9583 88.4745 17.0844 89.3407 17.8159C90.2262 18.5474 91.3908 18.9131 92.8346 18.9131C94.7788 18.9131 96.4536 18.4511 97.8588 17.5271V20.4146C97.1658 20.8766 96.3766 21.2135 95.4911 21.4253C94.6248 21.6563 93.6142 21.7718 92.4592 21.7718Z" fill="#1A1A1A"/>
<path d="M99.5871 0H103.225V9.24C104.534 7.777 106.228 7.0455 108.307 7.0455C110.175 7.0455 111.57 7.55562 112.494 8.57587C113.418 9.57687 113.88 10.9148 113.88 12.5895V21.3386H110.242V12.936C110.242 10.9148 109.299 9.90413 107.412 9.90413C106.584 9.90413 105.805 10.1062 105.073 10.5105C104.342 10.8955 103.726 11.4826 103.225 12.2719V21.3386H99.5871V0Z" fill="#1A1A1A"/>
<path d="M120.715 21.7718C119.059 21.7718 117.702 21.3386 116.644 20.4724C115.585 19.5869 115.055 18.403 115.055 16.9207C115.055 15.3807 115.556 14.1776 116.557 13.3114C117.558 12.4451 118.963 12.012 120.773 12.012C122.524 12.012 124.036 12.3681 125.306 13.0804V12.705C125.306 11.7233 124.998 11.011 124.382 10.5682C123.785 10.1255 122.813 9.90413 121.466 9.90413C120.619 9.90413 119.781 9.99075 118.954 10.164C118.126 10.318 117.394 10.5394 116.759 10.8281V7.9695C117.337 7.7 118.107 7.47862 119.069 7.30537C120.051 7.13212 120.994 7.0455 121.899 7.0455C124.305 7.0455 126.086 7.56525 127.241 8.60475C128.396 9.625 128.973 11.0495 128.973 12.8783V21.3386H125.537V19.9815C124.94 20.559 124.257 21.0018 123.487 21.3098C122.736 21.6178 121.812 21.7718 120.715 21.7718ZM121.61 19.1152C122.419 19.1152 123.15 18.9613 123.805 18.6532C124.459 18.326 124.96 17.8833 125.306 17.325V15.7946C124.247 15.0439 123.035 14.6685 121.668 14.6685C119.724 14.6685 118.751 15.4192 118.751 16.9207C118.751 17.6523 118.992 18.2009 119.473 18.5666C119.974 18.9324 120.686 19.1152 121.61 19.1152Z" fill="#1A1A1A"/>
<path d="M131.143 7.47863H134.666V9.3555C135.32 8.56625 136.1 7.98875 137.005 7.623C137.91 7.238 138.862 7.0455 139.863 7.0455C141.731 7.0455 143.126 7.55562 144.05 8.57587C144.974 9.57687 145.436 10.9148 145.436 12.5895V21.3386H141.798V12.936C141.798 10.9148 140.855 9.90413 138.968 9.90413C138.141 9.90413 137.361 10.1062 136.629 10.5105C135.898 10.8955 135.282 11.4826 134.781 12.2719V21.3386H131.143V7.47863Z" fill="#1A1A1A"/>
<path d="M147.612 7.47863H151.135V9.3555C151.789 8.56625 152.569 7.98875 153.474 7.623C154.378 7.238 155.331 7.0455 156.332 7.0455C158.2 7.0455 159.595 7.55562 160.519 8.57587C161.443 9.57687 161.905 10.9148 161.905 12.5895V21.3386H158.267V12.936C158.267 10.9148 157.324 9.90413 155.437 9.90413C154.609 9.90413 153.83 10.1062 153.098 10.5105C152.367 10.8955 151.751 11.4826 151.25 12.2719V21.3386H147.612V7.47863Z" fill="#1A1A1A"/>
<path d="M171.877 21.7718C169.298 21.7718 167.257 21.1269 165.756 19.8371C164.254 18.5474 163.503 16.7475 163.503 14.4375C163.503 12.166 164.168 10.3661 165.496 9.03788C166.824 7.70963 168.72 7.0455 171.184 7.0455C172.801 7.0455 174.178 7.3535 175.313 7.9695C176.468 8.5855 177.335 9.4325 177.912 10.5105C178.49 11.5693 178.778 12.782 178.778 14.1488V15.8235H166.968C167.219 17.8833 169.009 18.9131 172.339 18.9131C173.225 18.9131 174.129 18.8361 175.053 18.6821C175.977 18.5281 176.786 18.3164 177.479 18.0469V20.8477C176.824 21.1173 175.977 21.3386 174.938 21.5119C173.918 21.6851 172.897 21.7718 171.877 21.7718ZM175.342 13.3403C175.304 12.243 174.909 11.396 174.158 10.7993C173.427 10.2025 172.416 9.90413 171.126 9.90413C169.856 9.90413 168.855 10.2121 168.123 10.8281C167.392 11.4441 167.007 12.2815 166.968 13.3403H175.342Z" fill="#1A1A1A"/>
<path d="M180.522 0H184.16V21.3386H180.522V0Z" fill="#1A1A1A"/>
<path d="M21.3018 3.31993C24.7498 5.76575 27 9.78942 27 14.3386C27 21.7945 20.9558 27.8386 13.5 27.8386C6.04416 27.8386 0 21.7945 0 14.3386C0 6.88278 6.04416 0.838626 13.5 0.838626C14.6361 0.838626 15.7395 0.978976 16.7937 1.24327L13.1935 4.84348C8.08862 5.0053 4 9.19449 4 14.3386C4 19.5853 8.2533 23.8386 13.5 23.8386C18.7467 23.8386 23 19.5853 23 14.3386C23 12.5807 22.5225 10.9343 21.6902 9.52205L13 18.2122V11.6217L21.3018 3.31993Z" fill="#EF131B"/>
<path d="M187.368 21.3386C186.964 21.3386 186.617 21.2038 186.328 20.9343C186.04 20.6456 185.895 20.2991 185.895 19.8948C185.895 19.4713 186.04 19.1152 186.328 18.8264C186.617 18.5377 186.964 18.3933 187.368 18.3933C187.772 18.3933 188.119 18.5377 188.407 18.8264C188.696 19.1152 188.84 19.4713 188.84 19.8948C188.84 20.2991 188.696 20.6456 188.407 20.9343C188.119 21.2038 187.772 21.3386 187.368 21.3386Z" fill="#EF131B"/>
<path d="M192.613 5.05307C192.035 5.05307 191.544 4.86056 191.14 4.47556C190.755 4.09056 190.563 3.60931 190.563 3.03182C190.563 2.45431 190.755 1.97306 191.14 1.58807C191.544 1.18381 192.035 0.981689 192.613 0.981689C193.19 0.981689 193.681 1.18381 194.085 1.58807C194.49 1.97306 194.692 2.45431 194.692 3.03182C194.692 3.60931 194.49 4.09056 194.085 4.47556C193.681 4.86056 193.19 5.05307 192.613 5.05307ZM190.765 7.47857H194.461V21.3386H190.765V7.47857Z" fill="#EF131B"/>
<path d="M204.529 21.7717C202.912 21.7717 201.488 21.4829 200.256 20.9054C199.043 20.3087 198.1 19.4617 197.426 18.3644C196.752 17.2479 196.415 15.9293 196.415 14.4086C196.415 12.9263 196.743 11.6366 197.397 10.5393C198.071 9.42282 199.024 8.56619 200.256 7.96944C201.488 7.35344 202.912 7.04544 204.529 7.04544C206.146 7.04544 207.561 7.35344 208.774 7.96944C210.006 8.56619 210.959 9.42282 211.632 10.5393C212.306 11.6366 212.643 12.9263 212.643 14.4086C212.643 15.9293 212.306 17.2479 211.632 18.3644C210.959 19.4617 210.006 20.3087 208.774 20.9054C207.561 21.4829 206.146 21.7717 204.529 21.7717ZM204.529 18.9131C205.857 18.9131 206.916 18.4992 207.705 17.6714C208.495 16.8244 208.889 15.7368 208.889 14.4086C208.889 13.0033 208.495 11.9061 207.705 11.1168C206.935 10.3083 205.877 9.90407 204.529 9.90407C203.182 9.90407 202.113 10.3083 201.324 11.1168C200.554 11.9061 200.169 13.0033 200.169 14.4086C200.169 15.7368 200.564 16.8244 201.353 17.6714C202.142 18.4992 203.201 18.9131 204.529 18.9131Z" fill="#EF131B"/>
</svg>
